<svg xmlns="http://www.w3.org/2000/svg" width="29.097" height="29.097" viewBox="0 0 29.097 29.097"><defs><style>.a{fill:#0b70a5;}.b{fill:#e87c23;}.c{fill:#fff;}</style></defs><rect class="a" width="29.097" height="29.097" rx="4.957" transform="translate(0 0)"/><path class="b" d="M152.94,77.335l21.226-12.47V76.99l-10.7,6.591Z" transform="translate(-148.996 -56.343)"/><path class="c" d="M149.507,41.255c-.039,4.064-.14,8.154-.265,12.326l-.208-.36,11.168,6.1h-.721l11.063-6.276-.312.541.209-12.719.208.36-11.015-6.36h.416C156.5,37.057,153.006,39.19,149.507,41.255Zm-1.361-.786c3.844-2.174,7.7-4.281,11.488-6.327l.215-.116.2.116,11.015,6.36.2.118,0,.242.209,12.719.006.354-.318.187L160.2,60.566l-.367.216-.354-.216-10.863-6.624-.2-.122-.007-.238C148.286,49.275,148.185,44.886,148.146,40.47Z" transform="translate(-145.293 -32.525)"/><path class="c" d="M172.361,63.005,150.272,75.624a.3.3,0,0,1-.3-.519l21.973-12.82a.416.416,0,1,1,.419.718Z" transform="translate(-146.589 -54.307)"/><g transform="translate(7.035 3.56)"><path class="c" d="M166.523,55.236V49.259L177.3,43.066l.934.9L167.77,49.98v3.1l10.15-5.852,1.169.766Z" transform="translate(-166.523 -43.066)"/></g><g transform="translate(6.853 13.835)"><path class="c" d="M165.719,97.347l15.093-9.137.136,1.375-14.08,8.523Z" transform="translate(-165.719 -88.21)"/></g><g transform="translate(13.674 18.065)"><path class="c" d="M195.69,112.008l8.574-5.211-.038,1.482-7.066,4.294Z" transform="translate(-195.69 -106.797)"/></g></svg>