<svg xmlns="http://www.w3.org/2000/svg" width="244.516" height="209.313" viewBox="0 0 244.516 209.313"><defs><style>.a{fill:#f2f2f2;}.b{fill:#fff;}.c{fill:#3f3d56;}.d{fill:#0b70a5;}.e{fill:#e6e6e6;}</style></defs><g transform="translate(0)"><path class="a" d="M383.608,611.929a15.843,15.843,0,0,0,5.684-13.657c-.625-5.1-4.5-9.79-9.521-10.873s-10.75,1.915-12.276,6.822c-.84-9.461-1.807-19.318-6.837-27.375A28.992,28.992,0,0,0,339.666,553.4a26.012,26.012,0,0,0-22.883,9.341,23.608,23.608,0,0,0-2.9,24.305c2.751,5.707,7.819,9.954,13.13,13.41a84.737,84.737,0,0,0,57.955,12.679" transform="translate(-311.75 -404.801)"/><path class="b" d="M341.63,559.91a139.821,139.821,0,0,1,41.083,55.552c.392.96-1.167,1.378-1.555.429A138.383,138.383,0,0,0,340.49,561.05c-.805-.656.342-1.79,1.14-1.14Z" transform="translate(-328.143 -408.525)"/><path class="a" d="M479.713,611.929a15.843,15.843,0,0,1-5.684-13.657c.625-5.1,4.5-9.79,9.521-10.873s10.75,1.915,12.276,6.822c.84-9.461,1.807-19.318,6.837-27.375A28.991,28.991,0,0,1,523.656,553.4a26.012,26.012,0,0,1,22.883,9.341,23.608,23.608,0,0,1,2.9,24.305c-2.751,5.707-7.819,9.954-13.13,13.41a84.737,84.737,0,0,1-57.955,12.679" transform="translate(-405.143 -404.801)"/><path class="b" d="M569.323,559.91a139.82,139.82,0,0,0-41.083,55.552c-.392.96,1.167,1.378,1.555.429a138.264,138.264,0,0,1,40.668-54.841c.8-.656-.342-1.79-1.14-1.14Z" transform="translate(-436.382 -408.524)"/><circle class="a" cx="13.148" cy="13.148" r="13.148" transform="translate(73.069 67.862)"/><path class="a" d="M371.408,287.388H462v4.956H382.972a35.381,35.381,0,0,0-35.381,35.381v56.308h-9.912a1.652,1.652,0,0,1-1.652-1.652V322.769a35.381,35.381,0,0,1,35.381-35.381Z" transform="translate(-325.731 -251.702)"/><path class="c" d="M460.527,590.035V514.75h22.055v75.285a1.911,1.911,0,0,1-1.909,1.909H462.436A1.911,1.911,0,0,1,460.527,590.035Z" transform="translate(-397.425 -382.631)"/><path class="c" d="M325.027,378.226V317.008a36.8,36.8,0,0,1,36.758-36.758h93.453v100.1H327.148a2.123,2.123,0,0,1-2.121-2.121ZM454.39,281.1h-92.6a35.951,35.951,0,0,0-35.91,35.91v61.218a1.274,1.274,0,0,0,1.272,1.272H454.389Z" transform="translate(-319.396 -247.591)"/><path class="d" d="M459.744,291.047a7.643,7.643,0,0,1-7.635-7.635V228.7a1.274,1.274,0,0,0-1.272-1.272h-29.69a2.123,2.123,0,0,1-2.121-2.121V205.371a2.123,2.123,0,0,1,2.121-2.121h44.111a2.123,2.123,0,0,1,2.121,2.121v78.042A7.643,7.643,0,0,1,459.744,291.047Z" transform="translate(-373.527 -203.25)"/><path class="c" d="M607.2,278.25h0a24.125,24.125,0,0,1,24.176,24.075v69.69h47.5a7.2,7.2,0,0,1,7.21,7.18H583.027V302.325A24.125,24.125,0,0,1,607.2,278.25Z" transform="translate(-467.968 -246.439)"/><path class="b" d="M626.29,298l5.006,20.679,97.926-23.706-5.006-20.679a1.543,1.543,0,0,0-1-1.1,1.524,1.524,0,0,0-.566-.085L666.044,243.8a1.562,1.562,0,0,0-1.975.475l-27.281,38.043L626.5,296.659a.218.218,0,0,0-.038.177A1.545,1.545,0,0,0,626.29,298Z" transform="translate(-492.856 -226.5)"/><path class="c" d="M626.759,296.836a.207.207,0,0,0,.086.134.237.237,0,0,0,.184.036.227.227,0,0,0,.127-.088l.035-.049.536-.749,9.725-13.557,27.273-38.034a1.111,1.111,0,0,1,1.409-.338L722.3,273.274l.5.262a.553.553,0,0,0,.063.022.682.682,0,0,1,.115-.011.218.218,0,0,0,.123-.1.222.222,0,0,0-.093-.3l-.07-.037L666.337,243.8a1.562,1.562,0,0,0-1.975.475l-27.281,38.043L626.8,296.659A.218.218,0,0,0,626.759,296.836Z" transform="translate(-493.149 -226.5)"/><path class="e" d="M693.826,287.789l2.18.242,16.178,1.792,10.725,1.187.633.07,13.383-10.453.513-.4,3.161-2.469,11.245-8.782.068-.617,4-36.1a1.889,1.889,0,0,0-1.667-2.083l-53.38-5.913a1.89,1.89,0,0,0-2.083,1.667l-2.821,25.464L694.4,265.511,693,278.141l-.649,5.866-.189,1.7A1.89,1.89,0,0,0,693.826,287.789Z" transform="translate(-530.806 -215.344)"/><path class="b" d="M727.34,291.935l23.123,2.561,8.2.908a2.774,2.774,0,1,0,.611-5.514l-10.2-1.13-21.122-2.342a2.775,2.775,0,0,0-.612,5.516Z" transform="translate(-549.65 -251.133)"/><path class="b" d="M724.481,316.091c.06.011.119.021.18.027l26.842,2.974,4.482.5a2.775,2.775,0,0,0,.61-5.516l-6.48-.717L728.852,311l-3.578-.4a2.773,2.773,0,0,0-.793,5.487Z" transform="translate(-548.108 -265.061)"/><path class="b" d="M719.884,339.236a2.773,2.773,0,0,0,2.07,1.326l11,1.219,19.594,2.171h0l.627.07,3.161-2.469a2.735,2.735,0,0,0,0-.564,2.78,2.78,0,0,0-2.454-2.47l-2.722-.3-10.8-1.195-7.769-.862-10.035-1.112a2.774,2.774,0,0,0-2.68,4.19Z" transform="translate(-546.549 -279.136)"/><path class="b" d="M753.508,262.46l5.753.637,2.541.282,3.839.425a2.775,2.775,0,0,0,.61-5.516l-12.13-1.343a2.774,2.774,0,0,0-.613,5.514Z" transform="translate(-564.72 -234.161)"/><path class="d" d="M645.872,285.862l7.014,28.975,11.707,2.226,10.829,2.062,11.619,2.211,3.713.706a1.558,1.558,0,0,0,1.247-.3l2.978-2.326,1.886-1.473,13.383-10.453-8.509-35.15a1.868,1.868,0,0,0-.528-.916,1.887,1.887,0,0,0-1.75-.474l-52.2,12.636a1.888,1.888,0,0,0-1.389,2.277Z" transform="translate(-504.127 -242.205)"/><path class="b" d="M683.758,345.808a2.777,2.777,0,0,0,3.349,2.044l30.629-7.415a2.778,2.778,0,0,0,2.044-3.349.889.889,0,0,0-.03-.1,2.773,2.773,0,0,0-3.319-1.939L685.8,342.459A2.777,2.777,0,0,0,683.758,345.808Z" transform="translate(-525.93 -279.1)"/><path class="b" d="M690.082,367.576l10.829,2.062,22.94-5.553a2.774,2.774,0,1,0-1.305-5.392l-30.629,7.415a2.754,2.754,0,0,0-1.589,1.065A2.788,2.788,0,0,0,690.082,367.576Z" transform="translate(-529.617 -292.717)"/><path class="b" d="M743.008,387.208l3.712.706a1.558,1.558,0,0,0,1.247-.3l2.978-2.326Z" transform="translate(-560.095 -308.078)"/><path class="b" d="M698.308,315.346a2.776,2.776,0,0,0,3.349,2.043l11.863-2.872a2.778,2.778,0,0,0,2.043-3.349,2.742,2.742,0,0,0-.511-1.055,2.776,2.776,0,0,0-2.838-.989L700.352,312a2.774,2.774,0,0,0-2.044,3.349Z" transform="translate(-534.309 -264.175)"/><path class="b" d="M664.15,343.443l11.621,2.211,3.711.707a1.565,1.565,0,0,0,1.246-.3l2.98-2.327-1.046.253-2.208,1.722a1.118,1.118,0,0,1-.89.216l-2.748-.523L665.2,343.19Zm34.711-12.1.113.467.515-.4Zm-34.711,12.1,11.621,2.211,3.711.707a1.565,1.565,0,0,0,1.246-.3l2.98-2.327-1.046.253-2.208,1.722a1.118,1.118,0,0,1-.89.216l-2.748-.523L665.2,343.19Zm0,0,11.621,2.211,3.711.707a1.565,1.565,0,0,0,1.246-.3l2.98-2.327-1.046.253-2.208,1.722a1.118,1.118,0,0,1-.89.216l-2.748-.523L665.2,343.19Zm-37.86-5.423L639.4,392.187a1.555,1.555,0,0,0,1.876,1.144l94.906-22.975a1.555,1.555,0,0,0,1.144-1.876l-13.113-54.167a1.543,1.543,0,0,0-1-1.1,1.525,1.525,0,0,0-.566-.085,1.467,1.467,0,0,0-.642.169,1.351,1.351,0,0,0-.258.16l-7.789,6.082-11.312,8.836-3.79,2.96v0h0l-13.9,10.849-2.3,1.8-2.208,1.722a1.118,1.118,0,0,1-.89.216l-2.748-.523L665.2,343.19l-11.631-2.212-25.474-4.848a1.523,1.523,0,0,0-.656.014,1.557,1.557,0,0,0-.758.439,1.749,1.749,0,0,0-.209.276,1.545,1.545,0,0,0-.177,1.16Zm37.86,5.423,11.621,2.211,3.711.707a1.565,1.565,0,0,0,1.246-.3l2.98-2.327-1.046.253-2.208,1.722a1.118,1.118,0,0,1-.89.216l-2.748-.523L665.2,343.19Zm0,0,11.621,2.211,3.711.707a1.565,1.565,0,0,0,1.246-.3l2.98-2.327-1.046.253-2.208,1.722a1.118,1.118,0,0,1-.89.216l-2.748-.523L665.2,343.19Zm0,0,11.621,2.211,3.711.707a1.565,1.565,0,0,0,1.246-.3l2.98-2.327-1.046.253-2.208,1.722a1.118,1.118,0,0,1-.89.216l-2.748-.523L665.2,343.19Z" transform="translate(-492.856 -266.524)"/><path class="c" d="M664.15,343.443l11.621,2.211,3.711.707a1.565,1.565,0,0,0,1.246-.3l2.98-2.327-1.046.253-2.208,1.722a1.118,1.118,0,0,1-.89.215l-2.748-.523L665.2,343.19Zm34.711-12.1.113.467.515-.4Zm-34.711,12.1,11.621,2.211,3.711.707a1.565,1.565,0,0,0,1.246-.3l2.98-2.327-1.046.253-2.208,1.722a1.118,1.118,0,0,1-.89.215l-2.748-.523L665.2,343.19Zm0,0,11.621,2.211,3.711.707a1.565,1.565,0,0,0,1.246-.3l2.98-2.327-1.046.253-2.208,1.722a1.118,1.118,0,0,1-.89.215l-2.748-.523L665.2,343.19Zm-37.251-6.55.058.043c.01-.016.026-.03.039-.047a1.121,1.121,0,0,1,1.012-.326l25.315,4.816,10.828,2.063,11.621,2.211,3.711.707a1.565,1.565,0,0,0,1.246-.3l2.98-2.327-1.046.253-2.208,1.722a1.118,1.118,0,0,1-.89.216l-2.748-.523L665.2,343.19l-11.631-2.212-25.474-4.848a1.522,1.522,0,0,0-.656.014Zm-.609,1.127L639.4,392.187a1.555,1.555,0,0,0,1.876,1.144l94.906-22.975a1.555,1.555,0,0,0,1.144-1.876l-13.113-54.167a1.543,1.543,0,0,0-1-1.1,1.523,1.523,0,0,0-.566-.085,1.468,1.468,0,0,0-.642.169,1.351,1.351,0,0,0-.258.16l-7.789,6.082-11.312,8.836-3.79,2.96v0h0l-13.9,10.849-2.3,1.8-2.208,1.722a1.118,1.118,0,0,1-.89.216l-2.748-.523L665.2,343.19l-11.631-2.212-25.474-4.848a1.522,1.522,0,0,0-.656.014,1.557,1.557,0,0,0-.758.439,1.749,1.749,0,0,0-.209.276,1.545,1.545,0,0,0-.177,1.16Zm.432-.1a1.1,1.1,0,0,1,.2-.929.144.144,0,0,1,.038-.05c.01-.016.026-.03.039-.047a1.121,1.121,0,0,1,1.012-.326l25.315,4.816,10.828,2.063,11.621,2.211,3.711.707a1.564,1.564,0,0,0,1.246-.3l2.981-2.327,1.885-1.473,13.38-10.454.515-.4,3.158-2.467,11.247-8.784,8.131-6.35a1.1,1.1,0,0,1,.419-.2.857.857,0,0,1,.13-.021.683.683,0,0,1,.115-.011,1.136,1.136,0,0,1,.382.062,1.114,1.114,0,0,1,.715.786L736.9,368.585a1.111,1.111,0,0,1-.819,1.342L641.174,392.9a1.11,1.11,0,0,1-1.339-.82Zm37.428,5.528,11.621,2.211,3.711.707a1.565,1.565,0,0,0,1.246-.3l2.98-2.327-1.046.253-2.208,1.722a1.118,1.118,0,0,1-.89.216l-2.748-.523L665.2,343.19Zm0,0,11.621,2.211,3.711.707a1.565,1.565,0,0,0,1.246-.3l2.98-2.327-1.046.253-2.208,1.722a1.118,1.118,0,0,1-.89.216l-2.748-.523L665.2,343.19Zm0,0,11.621,2.211,3.711.707a1.565,1.565,0,0,0,1.246-.3l2.98-2.327-1.046.253-2.208,1.722a1.118,1.118,0,0,1-.89.216l-2.748-.523L665.2,343.19Z" transform="translate(-492.856 -266.524)"/><path class="d" d="M827,413.254a3.447,3.447,0,0,1,2.537-4.157l11.978-2.9a3.444,3.444,0,0,1,1.62,6.694l-11.978,2.9A3.447,3.447,0,0,1,827,413.254Z" transform="translate(-608.406 -320.063)"/><circle class="b" cx="2.969" cy="2.969" r="2.969" transform="translate(83.249 77.193)"/></g></svg>